<svg width="21" height="22" viewBox="0 0 21 22" version="1.1" xmlns="http://www.w3.org/2000/svg" xmlns:xlink="http://www.w3.org/1999/xlink">
<path fill-rule="evenodd" d="M 15.0714 15.1026L 19.8441 19.8852C 20.1305 20.1721 20.035 20.6504 19.7487 20.9374C 19.4624 21.2243 18.9851 21.2243 18.6987 20.9374L 13.926 16.1548L 13.926 16.0591C 12.2078 17.3982 9.91687 18.0678 7.53052 17.6852C 2.75781 16.92 -0.583129 12.5199 0.0850842 7.64171C 0.848756 2.76341 5.33508 -0.584363 10.1078 0.0851923C 14.8805 0.85039 18.2214 5.25041 17.5532 10.1286C 17.2668 12.1374 16.4078 13.7634 15.0714 15.1026ZM 1.51697 7.83299C 0.944215 11.946 3.80786 15.6765 7.8169 16.2504C 11.8261 16.8243 15.6442 13.9548 16.2169 9.93737C 16.7897 5.82433 13.926 2.09386 9.91699 1.51995C 5.81238 0.946032 2.08972 3.8156 1.51697 7.83299Z" fill="#484848"/>
</svg>